<?xml version="1.0" encoding="utf-8"?>
<!-- Generator: Adobe Illustrator 16.0.0, SVG Export Plug-In . SVG Version: 6.00 Build 0)  -->
<!DOCTYPE svg PUBLIC "-//W3C//DTD SVG 1.1//EN" "http://www.w3.org/Graphics/SVG/1.1/DTD/svg11.dtd">
<svg version="1.1" id="Capa_1" xmlns="http://www.w3.org/2000/svg" xmlns:xlink="http://www.w3.org/1999/xlink" x="0px" y="0px"
	 width="200px" height="200px" viewBox="0 0 200 200" enable-background="new 0 0 200 200" xml:space="preserve">
<g>
	<path fill="#035191" d="M100,198.644H24.859c-13.355,0-24.181-11.688-24.181-26.104V26.102C0.678,11.686,11.504,0,24.859,0H100
		V198.644z"/>
	<path fill="#013C76" d="M100,198.644h75.139c13.356,0,24.184-11.688,24.184-26.104V26.102C199.322,11.686,188.495,0,175.139,0H100
		V198.644z"/>
	<path fill-rule="evenodd" clip-rule="evenodd" fill="#6AE0EB" d="M100,88.277c-5.159-0.236-10.371-2.644-14.128-7.644
		c-4.615-6.139-4.387-15.592-0.146-21.483c5.162-7.168,9.605-14.806,13.034-22.983c0.502-1.198,0.92-2.429,1.401-3.698"/>
	<path fill-rule="evenodd" clip-rule="evenodd" fill="#02BF59" d="M100.161,32.469c0.856,1.997,1.623,3.957,2.523,5.858
		c2.957,6.237,6.715,11.991,10.753,17.563c1.157,1.599,2.468,3.105,3.461,4.803c4.5,7.703,2.56,17.545-4.349,23.383
		c-3.439,2.912-7.973,4.41-12.549,4.201"/>
	<g>
		<path fill="#EDEEF0" d="M99.625,122.931c8.95-1.813,32.052-6.765,34.866-10.128c1.661-1.996,2.075-5.003,1.164-8.464
			c-0.9-3.447-2.324-5.002-2.324-5.002c-2.105-2.3-1.508-5.241,1.329-6.536l13.319-6.08c2.836-1.295,7.38-1.103,10.098,0.427
			l9.799,5.518c2.718,1.53,3.154,4.603,0.97,6.828l-46.241,47.137c-2.185,2.226-6.49,3.645-9.569,3.153l-13.41-2.139"/>
	</g>
	<g>
		<path fill="#EDEEF0" d="M99.625,96.796c9.871-0.246,19.444-0.371,24.703-0.133c0.451,0.019,0.451,0.019,0.451,0.019
			c0.739,0.148,1.505,0.311,1.7,0.362c0,0,0,0,0.125,0.034c2.574,0.683,5.39,4.276,6.409,8.16c0.628,2.392,0.431,4.428-0.538,5.582
			c-1.589,1.847-17.638,5.98-32.85,9.082"/>
	</g>
	<g>
		<path fill="#E2E2E2" d="M100,147.594l-36.986-5.9c-3.079-0.491-7.92,0.163-10.758,1.455l-17.847,8.125
			c-2.838,1.292-6.66,0.285-8.493-2.237l-10.287-14.15c-1.833-2.522-1.143-5.893,1.536-7.49l44.633-26.62
			c2.678-1.597,7.418-3.014,10.533-3.148c0,0,11.355-0.491,27.572-0.895v23.103c-0.576,0.117-1.15,0.233-1.722,0.348
			c-0.755,0.142-1.269,0.921-1.148,1.742c0.09,0.643,0.553,1.121,1.121,1.213c0.146,0.023,0.293,0.017,0.445-0.01
			c0.406-0.081,0.859-0.172,1.355-0.272L100,147.594"/>
	</g>
</g>
</svg>
